<svg xmlns="http://www.w3.org/2000/svg" viewBox="0 0 512 512"><defs/><defs><linearGradient id="a" x1="100%" y1="100%"><stop offset="0%" stop-color="#333"><animate attributeName="stop-color" dur="10s" repeatCount="indefinite" values="#333333;#333333BB;#33333399;#33333355;#33333300;#33333355;#33333399;#333333BB;#333333"/></stop><stop offset="100%" stop-color="#333"><animate attributeName="stop-color" dur="10s" repeatCount="indefinite" values="#333333;#333333BB;#33333399;#33333355;#33333300;#33333355;#33333399;#333333BB;#333333"/><animate attributeName="offset" dur="10s" repeatCount="indefinite" values=".95;.80;.60;.40;.20;0;.20;.40;.60;.80;.95"/></stop></linearGradient></defs><g fill="url('#a')"><path d="M376 101A122 122 0 00211 9c-5 2-8 8-6 13s8 7 13 5a102 102 0 01139 94c0 2-7 8-28 13-20 6-46 8-73 8s-53-3-73-8c-21-5-28-11-28-13 0-13 2-25 7-37 2-5-1-11-6-13s-11 1-13 6l-7 24C93 107 0 126 0 170c0 23 28 43 79 57 24 7 51 12 80 15L90 500a10 10 0 0010 12c4 0 9-3 10-7l70-261a857 857 0 00153 0l69 261c2 4 6 7 10 7h3c5-2 8-7 7-13l-69-257c29-3 56-8 80-15 52-14 79-34 79-57 0-44-92-63-136-69zm51 107c-45 12-106 19-171 19s-126-7-171-19c-48-13-65-29-65-38 0-13 31-36 115-49v1c0 32 76 40 121 40s122-8 122-40v-1c83 13 114 36 114 49 0 9-17 25-65 38z"/><path d="M328 340a79 79 0 01-25-41c-2-6-5-15-16-18s-18 4-23 8c-8 7-22 20-42 23a15 15 0 00-9 26l10 8-20 7c-4 1-8 4-10 8-2 3-3 7-1 11a16 16 0 008 10l-20 8c-4 1-7 3-9 7a15 15 0 005 21c18 10 37 18 57 25l-6 22a10 10 0 0010 13c4 0 9-3 10-8l6-22c20 4 41 7 61 7h1c4 0 8-2 10-5 6-6 6-15 0-21l-13-17h2c4 0 7-2 10-4 6-6 6-16 0-22l-14-17c4 0 9 0 13-2 4-1 6-3 8-5 2-3 3-7 3-11s-2-8-6-11zm-45 21c4 10 11 21 19 30l-8-1a10 10 0 00-10 15c5 10 12 20 19 29-15 0-30-3-45-6l4-17c2-5-1-10-7-12-5-1-11 2-12 7l-4 17c-15-5-29-10-43-17l32-16c3-2 5-5 5-9s-3-7-7-9l-7-3c12-4 23-10 31-17 3-2 5-6 4-10-1-3-3-6-7-7l-12-6c21-5 35-18 43-25l4-3 2 4c3 11 9 29 24 44-4 0-8 0-13-2-4 0-8 1-10 4s-3 6-2 10z"/></g></svg>