<?xml version="1.0" encoding="utf-8"?>
<!-- Generator: Adobe Illustrator 24.1.2, SVG Export Plug-In . SVG Version: 6.00 Build 0)  -->
<svg version="1.1" id="Layer_1" xmlns="http://www.w3.org/2000/svg" xmlns:xlink="http://www.w3.org/1999/xlink" x="0px" y="0px"
	 viewBox="0 0 512 512" style="enable-background:new 0 0 512 512;" xml:space="preserve">
<defs>
	<linearGradient id="gradient" x1="100%" y1="100%">
    <stop offset="0%" stop-color="#333333" stop-opacity="1">
      <animate attributeName="stop-color" values="#333333;#333333BB;#33333399;#33333355;#33333300;#33333355;#33333399;#333333BB;#333333" dur="10s" repeatCount="indefinite" />
    </stop>
    <stop offset="100%" stop-color="#333333" stop-opacity="1">
      <animate attributeName="stop-color" values="#333333;#333333BB;#33333399;#33333355;#33333300;#33333355;#33333399;#333333BB;#333333" dur="10s" repeatCount="indefinite" />
      <animate attributeName="offset" values=".95;.80;.60;.40;.20;0;.20;.40;.60;.80;.95" dur="10s" repeatCount="indefinite" />    
    </stop>
  </linearGradient>
</defs>
<g>
	<g>
		<path fill="url('#gradient')" d="M375.7,100.6C365.7,43.5,315.9,0,256,0c-15.5,0-30.7,2.9-45,8.6c-5.1,2-7.6,7.9-5.6,13c2,5.1,7.9,7.6,13,5.6
			C230.4,22.4,243,20,256,20c55.9,0,101.4,45.4,101.5,101.3c-0.8,1.9-7.6,7.9-28.9,13.2c-19.8,5-45.6,7.7-72.6,7.7
			s-52.9-2.7-72.6-7.7c-21.2-5.3-28-11.3-28.9-13.2c0-12.9,2.4-25.5,7.2-37.3c2-5.1-0.5-10.9-5.6-13c-5.1-2-10.9,0.5-13,5.6
			c-3.1,7.8-5.4,15.8-6.8,24C92.5,107.2,0,126.4,0,169.8c0,23.3,27.5,43.2,79.4,57.5c23.3,6.4,50.5,11.4,79.9,14.8l-69,257.4
			c-1.4,5.3,1.7,10.8,7.1,12.2c0.9,0.2,1.7,0.3,2.6,0.3c4.4,0,8.5-2.9,9.7-7.4l69.8-260.5c24.4,2.2,50.2,3.3,76.5,3.3
			c26.4,0,52.1-1.1,76.5-3.3l69.8,260.5c1.2,4.5,5.2,7.4,9.7,7.4c0.9,0,1.7-0.1,2.6-0.3c5.3-1.4,8.5-6.9,7.1-12.2l-69-257.4
			c29.5-3.4,56.6-8.4,79.9-14.8c51.9-14.3,79.4-34.1,79.4-57.5C512,126.3,419.5,107.2,375.7,100.6z M427.3,207.9
			c-45.6,12.5-106.5,19.4-171.3,19.4s-125.7-6.9-171.3-19.4C36.9,194.8,20,179.2,20,169.8c0-12.5,30.7-35.4,114.5-48.7
			c0,0.1,0,0.3,0,0.4c0,32.1,76.4,40.6,121.5,40.6s121.5-8.6,121.5-40.6c0-0.1,0-0.3,0-0.4c83.8,13.3,114.5,36.2,114.5,48.7
			C492,179.2,475.1,194.8,427.3,207.9L427.3,207.9z"/>
		<!-- <path fill="url('#gradient')" d="M256,184.8L256,184.8c-5.5,0-10,4.5-10,10s4.5,10,10,10c5.5,0,10-4.5,10-10S261.5,184.8,256,184.8z"/>
		<path fill="url('#gradient')" d="M183.7,179.8L183.7,179.8c-5.5,0-10,4.5-10,10s4.5,10,10,10s10-4.5,10-10S189.2,179.8,183.7,179.8z"/>
		<path fill="url('#gradient')" d="M113.4,161.3L113.4,161.3c-5.5,0-10,4.5-10,10s4.5,10,10,10s10-4.5,10-10S119,161.3,113.4,161.3z"/>
		<path fill="url('#gradient')" d="M328.3,179.8c-5.5,0-10,4.5-10,10s4.5,10,10,10h0c5.5,0,10-4.5,10-10S333.8,179.8,328.3,179.8z"/>
		<path fill="url('#gradient')" d="M398.6,161.3c-5.5,0-10,4.5-10,10s4.5,10,10,10h0c5.5,0,10-4.5,10-10S404.1,161.3,398.6,161.3z"/>
		<path fill="url('#gradient')" d="M177.2,52.7c5.5,0,10-4.5,10-10s-4.5-10-10-10h0c-5.5,0-10,4.5-10,10S171.6,52.7,177.2,52.7z"/> -->
		<path fill="url('#gradient')" d="M328.3,340.4c-16.6-12.9-22.3-30.6-25.7-41.2c-1.9-5.8-5-15.6-15.6-18.4c-10.6-2.8-18.2,4-22.8,8.2
			c-8.2,7.4-21.8,19.8-42.5,22.7c-3.4,0.4-6.6,1.9-9.1,4.4c-2.9,2.9-4.5,6.7-4.5,10.8c0,4.1,1.6,7.9,4.5,10.8
			c3.2,3.2,6.7,5.9,10.3,8.1c-6.2,3.1-12.9,5.6-20,7.6c-4.2,0.9-7.8,3.6-9.9,7.3c-2,3.5-2.6,7.6-1.5,11.6c1.1,3.9,3.6,7.2,7.1,9.3
			c0.5,0.3,1,0.6,1.4,0.8c-6.3,2.9-12.9,5.5-19.7,7.4c-4,1-7.5,3.6-9.6,7.2c-2,3.5-2.6,7.6-1.5,11.6c1.1,3.9,3.6,7.2,7.1,9.2
			c17.8,10.3,37,18.6,57,24.7l-6,22.5c-1.4,5.3,1.7,10.8,7.1,12.2c0.9,0.2,1.7,0.3,2.6,0.3c4.4,0,8.5-2.9,9.7-7.4l6-22.5
			c20.3,4.7,41.1,7.1,61.7,7.1c0.2,0,0.4,0,0.6,0c3.9-0.1,7.5-1.7,10.2-4.4c6-5.9,6-15.6,0-21.6c-5.1-5.1-9.5-10.7-13.6-16.5
			c0.9,0,1.8,0,2.6,0c3.7-0.2,7.2-1.8,9.8-4.5c5.9-6,5.9-15.6,0-21.5c-5.4-5.4-10.1-11.1-14-17c4.1-0.1,8.5-0.7,12.9-1.9
			c0.2-0.1,0.4-0.1,0.6-0.2c3-0.9,5.5-2.7,7.4-5.2c2.5-3.2,3.6-7.2,3.1-11.2C333.6,346.5,331.6,342.9,328.3,340.4L328.3,340.4z
			 M283.2,360.8c4.2,10.5,10.6,21,18.7,30.6c-2.6-0.3-5.3-0.7-7.9-1.1c-3.9-0.7-7.8,0.9-10,4.1c-2.2,3.2-2.4,7.4-0.4,10.8
			c5.7,9.7,12,19.7,19.8,29c-15.2-0.7-30.5-2.8-45.5-6.2l4.4-16.6c1.4-5.3-1.7-10.8-7.1-12.2c-5.3-1.4-10.8,1.7-12.2,7.1l-4.4,16.6
			c-14.7-4.5-29-10.4-42.5-17.4c11.4-4.2,21.9-9.7,31.7-15.2c3.4-1.9,5.4-5.7,5.1-9.6c-0.3-3.9-2.9-7.2-6.6-8.6
			c-2.5-0.9-5-1.9-7.4-3c11.8-4.3,22.6-10.2,31.5-17.2c2.9-2.3,4.3-6,3.6-9.6c-0.7-3.6-3.3-6.6-6.8-7.7c-4.9-1.6-8.9-3.3-12.4-5.2
			c21-5.7,35-18.4,43-25.6c2.1-1.9,3.3-2.8,4.1-3.3c0.4,0.8,1,2.2,1.9,4.9c3.3,10.3,9.1,28.2,24.4,43.7c-4,0-8.3-0.6-13.3-1.7
			c-3.6-0.8-7.4,0.5-9.8,3.3C282.5,353.5,281.9,357.4,283.2,360.8L283.2,360.8z"/>
	</g>
</g>
</svg>
