<svg width="64" height="64" viewBox="0 0 64 64" fill="none" xmlns="http://www.w3.org/2000/svg">
<path d="M32.0002 18.6607C33.0356 18.6607 33.8752 17.8213 33.8752 16.7858C33.8752 15.7502 33.0356 14.9108 32.0002 14.9108C30.9645 14.9108 30.1251 15.7502 30.1251 16.7858C30.1251 17.8213 30.9645 18.6607 32.0002 18.6607ZM47.0001 18.6607C48.0357 18.6607 48.8751 17.8213 48.8751 16.7858C48.8751 15.7502 48.0357 14.9108 47.0001 14.9108C45.9646 14.9108 45.1251 15.7502 45.1251 16.7858C45.1251 17.8213 45.9645 18.6607 47.0001 18.6607ZM24.5 11.1608C25.5357 11.1608 26.3751 10.3212 26.3751 9.28574C26.3751 8.25026 25.5357 7.41074 24.5 7.41074C23.4646 7.41074 22.6252 8.25026 22.6252 9.28574C22.6252 10.3212 23.4644 11.1608 24.5 11.1608ZM39.5001 11.1608C40.5356 11.1608 41.3752 10.3212 41.3752 9.28574C41.3752 8.25026 40.5356 7.41074 39.5001 7.41074C38.4647 7.41074 37.6251 8.25026 37.6251 9.28574C37.6251 10.3212 38.4645 11.1608 39.5001 11.1608ZM62.125 49.0001H1.875C0.8395 49.0001 0 49.8395 0 50.8749C0 58.1122 5.88788 64 13.125 64H50.8749C58.1122 64 64 58.1122 64 50.8749C64 49.8395 63.1604 49.0001 62.125 49.0001ZM50.8749 60.2499H13.125C8.59763 60.2499 4.80962 57.0238 3.93837 52.75H60.0616C59.1904 57.0238 55.4024 60.2499 50.8749 60.2499ZM17.0001 18.6607C18.0357 18.6607 18.8751 17.8213 18.8751 16.7858C18.8751 15.7502 18.0357 14.9108 17.0001 14.9108C15.9646 14.9108 15.1251 15.7502 15.1251 16.7858C15.1251 17.8213 15.9645 18.6607 17.0001 18.6607ZM62.125 37.6249C58.9999 37.6249 57.3364 38.8724 56 39.875C54.8389 40.7459 54 41.375 52.125 41.375C50.2376 41.375 49.3703 40.7402 48.1696 39.8619C46.8077 38.8652 45.1126 37.6249 42 37.6249C38.8749 37.6249 37.2115 38.8724 35.875 39.875C34.7139 40.7459 33.875 41.375 32 41.375C30.125 41.375 29.2861 40.7459 28.125 39.875C26.7885 38.8724 25.1251 37.6249 22 37.6249C18.8874 37.6249 17.1923 38.8652 15.8304 39.8619C14.6297 40.7402 13.7624 41.375 11.875 41.375C10 41.375 9.16113 40.7459 8 39.875C6.66349 38.8724 5 37.6249 1.875 37.6249C0.8395 37.6249 0 38.4645 0 39.5C0 40.5356 0.8395 41.375 1.875 41.375C3.75 41.375 4.58887 42.004 5.75 42.8749C7.0865 43.8776 8.75 45.1251 11.875 45.1251C14.9876 45.1251 16.6827 43.8848 18.0446 42.8881C19.2453 42.0098 20.1127 41.375 22 41.375C23.875 41.375 24.7139 42.004 25.875 42.8749C27.2115 43.8776 28.8749 45.1251 32 45.1251C35.1251 45.1251 36.7885 43.8776 38.125 42.8749C39.2861 42.004 40.125 41.375 42 41.375C43.8873 41.375 44.7547 42.0098 45.9554 42.8881C47.3172 43.8848 49.0124 45.1251 52.125 45.1251C55.25 45.1251 56.9135 43.8776 58.2499 42.8749C59.4112 42.004 60.2499 41.375 62.125 41.375C63.1604 41.375 64 40.5356 64 39.5C64 38.4645 63.1604 37.6249 62.125 37.6249ZM5.62499 33.7501H58.3751C61.4765 33.7501 64 31.2266 64 28.125C64 12.6169 51.3272 0 35.7501 0H28.2499C12.6729 0 0 12.6169 0 28.125C0 31.2266 2.52337 33.7501 5.62499 33.7501ZM28.2499 3.75H35.7501C49.2595 3.75 60.2499 14.6846 60.2499 28.125C60.2499 29.1589 59.4088 30 58.3751 30H5.62499C4.59112 30 3.75 29.1589 3.75 28.125C3.75 14.6846 14.7406 3.75 28.2499 3.75Z" fill="#333333"/>
</svg>
