<svg width="38" height="38" viewBox="0 0 38 38" fill="none" xmlns="http://www.w3.org/2000/svg">
<path d="M19.0001 11.0798C19.6149 11.0798 20.1134 10.5814 20.1134 9.96654C20.1134 9.35171 19.6149 8.85326 19.0001 8.85326C18.3852 8.85326 17.8868 9.35171 17.8868 9.96654C17.8868 10.5814 18.3852 11.0798 19.0001 11.0798ZM27.9063 11.0798C28.5212 11.0798 29.0196 10.5814 29.0196 9.96654C29.0196 9.35171 28.5212 8.85326 27.9063 8.85326C27.2915 8.85326 26.793 9.35171 26.793 9.96654C26.793 10.5814 27.2914 11.0798 27.9063 11.0798ZM14.5469 6.6267C15.1618 6.6267 15.6602 6.12824 15.6602 5.51341C15.6602 4.89859 15.1618 4.40013 14.5469 4.40013C13.9321 4.40013 13.4337 4.89859 13.4337 5.51341C13.4337 6.12824 13.932 6.6267 14.5469 6.6267ZM23.4532 6.6267C24.068 6.6267 24.5665 6.12824 24.5665 5.51341C24.5665 4.89859 24.068 4.40013 23.4532 4.40013C22.8384 4.40013 22.3399 4.89859 22.3399 5.51341C22.3399 6.12824 22.8383 6.6267 23.4532 6.6267ZM36.8867 29.0938H1.11328C0.498453 29.0938 0 29.5922 0 30.207C0 34.5041 3.49593 38 7.79297 38H30.207C34.5041 38 38 34.5041 38 30.207C38 29.5922 37.5015 29.0938 36.8867 29.0938ZM30.207 35.7734H7.79297C5.10484 35.7734 2.85571 33.8579 2.33841 31.3203H35.6616C35.1443 33.8579 32.8952 35.7734 30.207 35.7734ZM10.0938 11.0798C10.7087 11.0798 11.2071 10.5814 11.2071 9.96654C11.2071 9.35171 10.7087 8.85326 10.0938 8.85326C9.479 8.85326 8.98054 9.35171 8.98054 9.96654C8.98054 10.5814 9.47892 11.0798 10.0938 11.0798ZM36.8867 22.3398C35.0312 22.3398 34.0435 23.0805 33.25 23.6758C32.5606 24.1929 32.0625 24.5664 30.9492 24.5664C29.8286 24.5664 29.3136 24.1895 28.6007 23.668C27.7921 23.0762 26.7856 22.3398 24.9375 22.3398C23.082 22.3398 22.0943 23.0805 21.3008 23.6758C20.6114 24.1929 20.1133 24.5664 19 24.5664C17.8867 24.5664 17.3886 24.1929 16.6992 23.6758C15.9057 23.0805 14.918 22.3398 13.0625 22.3398C11.2144 22.3398 10.2079 23.0762 9.39929 23.668C8.68641 24.1895 8.17141 24.5664 7.05078 24.5664C5.9375 24.5664 5.43942 24.1929 4.75 23.6758C3.95645 23.0805 2.96875 22.3398 1.11328 22.3398C0.498453 22.3398 0 22.8383 0 23.4531C0 24.068 0.498453 24.5664 1.11328 24.5664C2.22656 24.5664 2.72464 24.9399 3.41406 25.457C4.20761 26.0523 5.19531 26.793 7.05078 26.793C8.8989 26.793 9.90538 26.0566 10.714 25.4648C11.4269 24.9433 11.9419 24.5664 13.0625 24.5664C14.1758 24.5664 14.6739 24.9399 15.3633 25.457C16.1568 26.0523 17.1445 26.793 19 26.793C20.8555 26.793 21.8432 26.0523 22.6367 25.457C23.3261 24.9399 23.8242 24.5664 24.9375 24.5664C26.0581 24.5664 26.5731 24.9433 27.286 25.4648C28.0946 26.0566 29.1011 26.793 30.9492 26.793C32.8047 26.793 33.7924 26.0523 34.5859 25.457C35.2754 24.9399 35.7734 24.5664 36.8867 24.5664C37.5015 24.5664 38 24.068 38 23.4531C38 22.8383 37.5015 22.3398 36.8867 22.3398ZM3.33984 20.0391H34.6602C36.5017 20.0391 38 18.5408 38 16.6992C38 7.49127 30.4755 0 21.2266 0H16.7734C7.52452 0 0 7.49127 0 16.6992C0 18.5408 1.49825 20.0391 3.33984 20.0391ZM16.7734 2.22656H21.2266C29.2478 2.22656 35.7734 8.719 35.7734 16.6992C35.7734 17.3131 35.274 17.8125 34.6602 17.8125H3.33984C2.72598 17.8125 2.22656 17.3131 2.22656 16.6992C2.22656 8.719 8.75225 2.22656 16.7734 2.22656Z" fill="#333333"/>
</svg>
