<svg width="64" height="64" viewBox="0 0 64 64" fill="none" xmlns="http://www.w3.org/2000/svg">
<g clip-path="url(#clip0)">
<path d="M35.5358 32.0009L63.2677 4.26864C64.2441 3.29225 64.2441 1.70926 63.2677 0.73301C62.2914 -0.243237 60.7083 -0.24336 59.7321 0.73301L32 28.4651L4.26789 0.73301C3.29152 -0.24336 1.70853 -0.24336 0.732279 0.73301C-0.243967 1.70938 -0.244093 3.29238 0.732279 4.26864L28.4642 32.0007L0.732279 59.7328C-0.244093 60.7092 -0.244093 62.2921 0.732279 63.2685C1.2204 63.7565 1.86028 64.0007 2.50016 64.0007C3.14002 64.0007 3.77977 63.7565 4.26802 63.2685L32 35.5364L59.7319 63.2685C60.2201 63.7565 60.8599 64.0007 61.4999 64.0007C62.1397 64.0007 62.7794 63.7565 63.2677 63.2685C64.2441 62.2921 64.2441 60.709 63.2677 59.7328L35.5358 32.0009Z" fill="#E4E4E4"/>
</g>
<defs>
<clipPath id="clip0">
<rect width="64" height="64" fill="white"/>
</clipPath>
</defs>
</svg>
