<svg width="28" height="28" viewBox="0 0 28 28" fill="none" xmlns="http://www.w3.org/2000/svg">
<g clip-path="url(#clip0)">
<path d="M15.5469 14.0008L27.6796 1.86794C28.1068 1.44077 28.1068 0.748213 27.6796 0.321104C27.2525 -0.106004 26.5599 -0.106058 26.1328 0.321104L14 12.4539L1.8672 0.321104C1.44004 -0.106058 0.74748 -0.106058 0.320372 0.321104C-0.106736 0.748267 -0.106791 1.44083 0.320372 1.86794L12.4531 14.0007L0.320372 26.1335C-0.106791 26.5607 -0.106791 27.2532 0.320372 27.6804C0.533926 27.8939 0.813871 28.0007 1.09382 28.0007C1.37376 28.0007 1.65365 27.8939 1.86726 27.6804L14 15.5476L26.1327 27.6804C26.3463 27.8939 26.6262 28.0007 26.9062 28.0007C27.1861 28.0007 27.466 27.8939 27.6796 27.6804C28.1068 27.2532 28.1068 26.5606 27.6796 26.1335L15.5469 14.0008Z" fill="#333333"/>
</g>
<defs>
<clipPath id="clip0">
<rect width="28.0002" height="28.0007" fill="white"/>
</clipPath>
</defs>
</svg>
