<svg xmlns="http://www.w3.org/2000/svg" fill="none" viewBox="0 0 64 64"><defs/><path fill="#512BD4" d="M64 0H0v64h64V0z"/><path fill="#fff" d="M11.407 40.889c-.452 0-.837-.151-1.153-.453a1.488 1.488 0 01-.476-1.102c0-.433.159-.804.476-1.113a1.59 1.59 0 011.153-.464c.46 0 .849.154 1.166.464.324.31.486.68.486 1.113 0 .426-.162.793-.486 1.102a1.626 1.626 0 01-1.166.453zM29.497 40.634h-2.941l-7.75-12.226a5.478 5.478 0 01-.486-.963h-.068c.06.356.09 1.117.09 2.285v10.904H15.74V24h3.134l7.49 11.936c.316.495.52.835.61 1.02h.046c-.076-.44-.114-1.186-.114-2.238V24h2.591v16.634zM42.169 40.634h-9.107V24h8.745v2.343h-6.053v4.71h5.578v2.331h-5.578v4.918h6.415v2.332zM55.112 26.343H50.45v14.29h-2.693v-14.29h-4.65V24h12.004v2.343z"/></svg>