<svg width="64" height="64" viewBox="0 0 64 64" fill="none" xmlns="http://www.w3.org/2000/svg">
<g clip-path="url(#clip0)">
<path d="M63.4362 12.7148L44.0264 31.9997L63.4362 51.2846C63.7871 50.5512 64 49.7405 64 48.8747V15.1247C64 14.2588 63.7871 13.4482 63.4362 12.7148Z" fill="#333333"/>
<path d="M58.3747 9.5H5.62472C4.75884 9.5 3.94822 9.71288 3.21484 10.0638L28.0227 34.7466C30.2162 36.9401 33.7832 36.9401 35.9767 34.7466L60.7846 10.0638C60.0512 9.71288 59.2406 9.5 58.3747 9.5Z" fill="#333333"/>
<path d="M0.56375 12.7148C0.212875 13.4482 0 14.2588 0 15.1247V48.8747C0 49.7406 0.212875 50.5513 0.56375 51.2846L19.9736 31.9997L0.56375 12.7148Z" fill="#333333"/>
<path d="M41.3747 34.6514L38.6281 37.398C34.9732 41.0529 29.0261 41.0529 25.3712 37.398L22.6247 34.6514L3.21484 53.9362C3.94822 54.2871 4.75884 54.5 5.62472 54.5H58.3747C59.2406 54.5 60.0512 54.2871 60.7846 53.9362L41.3747 34.6514Z" fill="#333333"/>
</g>
<defs>
<clipPath id="clip0">
<rect width="64" height="64" fill="white"/>
</clipPath>
</defs>
</svg>
