<svg width="128" height="128" viewBox="0 0 128 128" fill="none" xmlns="http://www.w3.org/2000/svg">
<g clip-path="url(#clip0)">
<path d="M67.9237 1.62603L116.571 50.2735C118.739 52.4415 118.739 55.952 116.571 58.12C114.405 60.2878 110.891 60.2878 108.725 58.12L64.0005 13.3955L19.2762 58.1198C17.1102 60.2875 13.5957 60.2875 11.4297 58.1198C10.3457 57.0358 9.80371 55.617 9.80371 54.1965C9.80371 52.776 10.3457 51.3553 11.4297 50.2733L60.0772 1.62578C62.2432 -0.541969 65.7577 -0.541969 67.9237 1.62603Z" fill="#333333"/>
<path d="M67.9237 69.8802L116.571 118.528C118.739 120.694 118.739 124.208 116.571 126.374C114.405 128.542 110.891 128.542 108.725 126.374L64.0005 81.6517L19.2762 126.374C17.1102 128.542 13.5957 128.542 11.4297 126.374C10.3457 125.292 9.80371 123.871 9.80371 122.451C9.80371 121.03 10.3457 119.609 11.4297 118.527L60.0772 69.88C62.2432 67.7125 65.7577 67.7125 67.9237 69.8802Z" fill="#333333"/>
</g>
<defs>
<clipPath id="clip0">
<rect width="128" height="128" fill="white"/>
</clipPath>
</defs>
</svg>
