<svg width="512" height="512" viewBox="0 0 512 512" fill="none" xmlns="http://www.w3.org/2000/svg">
<g clip-path="url(#clip0)">
<path d="M271.693 6.50401L466.283 201.094C474.954 209.766 474.954 223.808 466.283 232.48C457.619 241.151 443.561 241.151 434.897 232.48L256 53.582L77.1029 232.479C68.4389 241.15 54.3809 241.15 45.7169 232.479C41.3809 228.143 39.2129 222.468 39.2129 216.786C39.2129 211.104 41.3809 205.421 45.7169 201.093L240.307 6.50301C248.971 -2.16799 263.029 -2.16799 271.693 6.50401Z" fill="#333333"/>
<path d="M271.693 279.521L466.283 474.111C474.954 482.775 474.954 496.833 466.283 505.497C457.619 514.168 443.561 514.168 434.897 505.497L256 326.607L77.1029 505.496C68.4389 514.167 54.3809 514.167 45.7169 505.496C41.3809 501.168 39.2129 495.485 39.2129 489.803C39.2129 484.121 41.3809 478.438 45.7169 474.11L240.307 279.52C248.971 270.85 263.029 270.85 271.693 279.521Z" fill="#333333"/>
</g>
<defs>
<clipPath id="clip0">
<rect width="512" height="512" fill="white" transform="matrix(0 -1 -1 0 512 512)"/>
</clipPath>
</defs>
</svg>
