<svg width="64" height="64" viewBox="0 0 64 64" fill="none" xmlns="http://www.w3.org/2000/svg">
<path d="M21.3337 63.9998C27.2217 63.9998 32.0003 59.2212 32.0003 53.3332V42.6665H21.3337C15.4457 42.6665 10.667 47.4452 10.667 53.3332C10.667 59.2212 15.4457 63.9998 21.3337 63.9998Z" fill="#0ACF83"/>
<path d="M10.667 32.0002C10.667 26.1122 15.4457 21.3335 21.3337 21.3335H32.0003V42.6668H21.3337C15.4457 42.6668 10.667 37.8882 10.667 32.0002Z" fill="#A259FF"/>
<path d="M10.667 10.6667C10.667 4.77867 15.4457 0 21.3337 0H32.0003V21.3333H21.3337C15.4457 21.3333 10.667 16.5547 10.667 10.6667Z" fill="#F24E1E"/>
<path d="M32 0H42.6667C48.5547 0 53.3333 4.77867 53.3333 10.6667C53.3333 16.5547 48.5547 21.3333 42.6667 21.3333H32V0Z" fill="#FF7262"/>
<path d="M53.3333 32.0002C53.3333 37.8882 48.5547 42.6668 42.6667 42.6668C36.7787 42.6668 32 37.8882 32 32.0002C32 26.1122 36.7787 21.3335 42.6667 21.3335C48.5547 21.3335 53.3333 26.1122 53.3333 32.0002Z" fill="#1ABCFE"/>
</svg>
