<svg xmlns="http://www.w3.org/2000/svg" fill="none" viewBox="0 0 64 64"><defs/><path fill="#0ACF83" d="M21.3337 63.9998c5.888 0 10.6666-4.7786 10.6666-10.6666V42.6665H21.3337c-5.888 0-10.6667 4.7787-10.6667 10.6667 0 5.888 4.7787 10.6666 10.6667 10.6666z"/><path fill="#A259FF" d="M10.667 32.0002c0-5.888 4.7787-10.6667 10.6667-10.6667h10.6666v21.3333H21.3337c-5.888 0-10.6667-4.7786-10.6667-10.6666z"/><path fill="#F24E1E" d="M10.667 10.6667C10.667 4.77867 15.4457 0 21.3337 0h10.6666v21.3333H21.3337c-5.888 0-10.6667-4.7786-10.6667-10.6666z"/><path fill="#FF7262" d="M32 0h10.6667c5.888 0 10.6666 4.77867 10.6666 10.6667 0 5.888-4.7786 10.6666-10.6666 10.6666H32V0z"/><path fill="#1ABCFE" d="M53.3333 32.0002c0 5.888-4.7786 10.6666-10.6666 10.6666C36.7787 42.6668 32 37.8882 32 32.0002c0-5.888 4.7787-10.6667 10.6667-10.6667 5.888 0 10.6666 4.7787 10.6666 10.6667z"/></svg>