<svg width="512" height="512" viewBox="0 0 512 512" fill="none" xmlns="http://www.w3.org/2000/svg">
<g clip-path="url(#clip0)">
<path d="M32.0002 34.8377C-8.23447 76.6297 0.000188112 121.024 0.000188112 255.894C0.000188112 367.894 -19.5412 480.171 82.7309 506.603C114.667 514.816 397.632 514.816 429.526 506.56C472.107 495.574 506.752 461.035 511.488 400.811C512.15 392.406 512.15 119.531 511.467 110.955C506.432 46.8057 466.944 9.83501 414.912 2.34701C402.987 0.619006 400.598 0.107005 339.414 0.000338733C122.39 0.107005 74.8162 -9.557 32.0002 34.8377Z" fill="#333333"/>
<path d="M255.957 66.9656C178.496 66.9656 104.939 60.0751 76.8428 132.182C65.2374 161.963 66.9228 200.64 66.9228 256.022C66.9228 304.619 65.3654 350.294 76.8428 379.84C104.875 451.99 179.029 445.078 255.915 445.078C330.091 445.078 406.571 452.8 435.008 379.84C446.635 349.76 444.928 311.659 444.928 256.022C444.928 182.166 449.003 134.486 413.184 98.6883C376.917 62.4216 327.872 66.9656 255.872 66.9656H255.957ZM239.019 101.035C400.597 100.779 421.163 82.8163 409.813 332.352C405.781 420.608 338.581 410.923 255.979 410.923C105.365 410.923 101.035 406.614 101.035 255.936C101.035 103.51 112.981 101.12 239.019 100.992V101.035ZM356.864 132.416C344.341 132.416 334.187 142.571 334.187 155.094C334.187 167.616 344.341 177.771 356.864 177.771C369.387 177.771 379.541 167.616 379.541 155.094C379.541 142.571 369.387 132.416 356.864 132.416ZM255.957 158.934C202.347 158.934 158.891 202.411 158.891 256.022C158.891 309.632 202.347 353.088 255.957 353.088C309.568 353.088 353.003 309.632 353.003 256.022C353.003 202.411 309.568 158.934 255.957 158.934ZM255.957 193.003C339.264 193.003 339.371 319.04 255.957 319.04C172.672 319.04 172.544 193.003 255.957 193.003Z" fill="#F7C003"/>
</g>
<defs>
<clipPath id="clip0">
<rect width="512" height="512" fill="white"/>
</clipPath>
</defs>
</svg>
