<svg xmlns="http://www.w3.org/2000/svg" fill="none" viewBox="0 0 64 64"><defs/><g clip-path="url(#clip0)"><path fill="#333" d="M4 4.35C-1.03 9.58 0 15.13 0 32c0 14-2.44 28.03 10.34 31.34 4 1.02 39.37 1.02 43.35-.01 5.32-1.37 9.66-5.7 10.25-13.22.08-1.05.08-35.16 0-36.23C63.3 5.85 58.36 1.23 51.86.29c-1.5-.21-1.8-.28-9.44-.29C15.3.01 9.35-1.2 4 4.35z"/><path fill="#F7C003" d="M32 8.37c-9.69 0-18.88-.86-22.4 8.15C8.17 20.25 8.38 25.08 8.38 32c0 6.08-.2 11.79 1.24 15.48 3.5 9.02 12.77 8.15 22.38 8.15 9.27 0 18.83.97 22.39-8.15 1.45-3.76 1.24-8.52 1.24-15.48 0-9.23.5-15.19-3.97-19.66-4.53-4.54-10.67-3.97-19.67-3.97H32zm-2.12 4.26c20.2-.03 22.77-2.28 21.35 28.91-.5 11.04-8.9 9.83-19.23 9.83-18.83 0-19.37-.54-19.37-19.38 0-19.05 1.5-19.35 17.25-19.37zm14.73 3.92a2.83 2.83 0 100 5.67 2.83 2.83 0 000-5.67zM32 19.87a12.14 12.14 0 100 24.27 12.14 12.14 0 000-24.27zm0 4.26c10.4 0 10.42 15.75 0 15.75s-10.43-15.75 0-15.75z"/></g><defs><clipPath id="clip0"><path fill="#fff" d="M0 0h64v64H0z"/></clipPath></defs></svg>