<svg xmlns="http://www.w3.org/2000/svg" fill="none" viewBox="0 0 64 64"><defs/><path fill="#F7DF1E" d="M64 0H0v64h64V0z"/><path fill="#000" d="M43 50c1.28 2.1 2.96 3.65 5.92 3.65 2.5 0 4.09-1.24 4.09-2.96 0-2.07-1.64-2.8-4.38-4l-1.5-.64c-4.34-1.85-7.23-4.17-7.23-9.06 0-4.51 3.44-7.95 8.81-7.95 3.83 0 6.57 1.33 8.55 4.82l-4.68 3c-1.03-1.84-2.14-2.57-3.87-2.57-1.76 0-2.88 1.12-2.88 2.57 0 1.8 1.12 2.54 3.7 3.66l1.5.64c5.11 2.2 8 4.43 8 9.45 0 5.41-4.25 8.38-9.97 8.38-5.58 0-9.19-2.66-10.96-6.15L43 50zm-21.25.52c.94 1.68 1.8 3.1 3.87 3.1 1.97 0 3.22-.78 3.22-3.78V29.39h6.01v20.53c0 6.22-3.65 9.06-8.98 9.06-4.81 0-7.6-2.5-9.02-5.5l4.9-2.96z"/></svg>