<svg width="48" height="48" viewBox="0 0 48 48" fill="none" xmlns="http://www.w3.org/2000/svg">
<path d="M43.1917 23.8509H39.8016C39.0995 23.8509 38.5303 24.4201 38.5303 25.1222V40.5787C38.5303 41.3991 37.8626 42.0666 37.0422 42.0666H7.42007C6.59984 42.0666 5.93266 41.3991 5.93266 40.5787V10.957C5.93266 10.1365 6.59984 9.4688 7.42007 9.4688H23.6679C24.37 9.4688 24.9392 8.8996 24.9392 8.19751V4.80742C24.9392 4.10533 24.37 3.53613 23.6679 3.53613H7.42007C3.32856 3.53613 0 6.8652 0 10.957V40.5788C0 44.6707 3.32873 47.9994 7.42007 47.9994H37.042C41.1339 47.9994 44.4628 44.6705 44.4628 40.5788V25.1224C44.4629 24.4201 43.8937 23.8509 43.1917 23.8509Z" fill="#F7C003"/>
<path d="M46.728 0H33.2434C32.5414 0 31.9722 0.569197 31.9722 1.27129V4.66138C31.9722 5.36347 32.5414 5.93266 33.2434 5.93266H37.8716L20.4559 23.3481C19.9594 23.8446 19.9594 24.6494 20.4559 25.146L22.853 27.5433C23.0915 27.7818 23.4147 27.9157 23.752 27.9157C24.0892 27.9157 24.4126 27.7818 24.6509 27.5433L42.0667 10.1276V14.7556C42.0667 15.4576 42.6359 16.0268 43.3379 16.0268H46.728C47.4301 16.0268 47.9993 15.4576 47.9993 14.7556V1.27129C47.9993 0.569197 47.4301 0 46.728 0Z" fill="#F7C003"/>
</svg>
