<svg xmlns="http://www.w3.org/2000/svg" fill="none" viewBox="0 0 64 63"><defs/><g clip-path="url(#clip0)"><path fill="#001E36" d="M11.33 0h41.34C58.93 0 64 5.07 64 11.33v39.74c0 6.26-5.07 11.33-11.33 11.33H11.33A11.32 11.32 0 010 51.07V11.33C0 5.07 5.07 0 11.33 0z"/><path fill="#31A8FF" d="M14.4 43.76V16.32c0-.19.08-.3.27-.3.45 0 .88 0 1.49-.02.64-.03 1.3-.03 2.03-.05.72-.03 1.49-.03 2.32-.06.82-.02 1.62-.02 2.42-.02 2.19 0 4 .26 5.5.82A9.52 9.52 0 0132 18.88a8.5 8.5 0 011.95 3.04c.4 1.12.61 2.27.61 3.47 0 2.29-.53 4.18-1.6 5.68a9.14 9.14 0 01-4.3 3.25c-1.8.67-3.8.9-6 .9-.63 0-1.06 0-1.33-.02-.26-.03-.64-.03-1.14-.03v8.56c.02.19-.11.35-.3.38h-5.17c-.21 0-.32-.11-.32-.35zm5.81-22.59v8.96c.38.03.72.06 1.04.06h1.42c1.04 0 2.08-.16 3.06-.48.86-.24 1.6-.75 2.19-1.42.56-.66.83-1.57.83-2.74a3.87 3.87 0 00-2.48-3.9 7.83 7.83 0 00-3.15-.53c-.7 0-1.3 0-1.81.03-.54-.03-.91 0-1.1.02zM51.2 28.5a9.44 9.44 0 00-2.56-.9c-.99-.21-1.97-.35-2.99-.35-.53-.02-1.09.06-1.6.19-.34.08-.64.27-.82.53-.14.22-.22.48-.22.72s.11.48.27.7a3 3 0 00.9.72c.62.32 1.26.61 1.9.88 1.44.48 2.83 1.14 4.1 1.94a6.2 6.2 0 012.11 2.22c.43.85.64 1.78.62 2.74a6.2 6.2 0 01-4.03 5.92c-1.3.56-2.9.86-4.83.86-1.22 0-2.42-.11-3.62-.35-.94-.16-1.87-.45-2.72-.85-.19-.11-.32-.3-.3-.51v-4.64c0-.08.03-.19.11-.24.08-.05.16-.03.24.03 1.04.61 2.13 1.04 3.3 1.3 1.02.27 2.09.4 3.15.4 1.02 0 1.74-.13 2.22-.37.42-.19.72-.64.72-1.12 0-.37-.22-.72-.64-1.07A11.3 11.3 0 0043.89 36a16.32 16.32 0 01-3.78-1.92 6.9 6.9 0 01-2.03-2.27 6.27 6.27 0 01.3-5.95 6.57 6.57 0 012.8-2.45c1.25-.64 2.82-.93 4.71-.93 1.1 0 2.22.08 3.31.24.8.1 1.57.32 2.3.61.1.03.2.14.26.24.03.11.05.22.05.32v4.35c0 .1-.05.21-.13.27-.24.05-.37.05-.48 0z"/></g><defs><clipPath id="clip0"><path fill="#fff" d="M0 0h64v62.4H0z"/></clipPath></defs></svg>