<svg width="64" height="64" viewBox="0 0 64 64" fill="none" xmlns="http://www.w3.org/2000/svg">
<path d="M32 0C18.7656 0 8 10.7669 8 24C8 41.7057 30.1433 62.75 31.086 63.638C31.3438 63.8789 31.6719 64 32 64C32.3281 64 32.6562 63.8789 32.9141 63.638C33.8567 62.75 56 41.7057 56 24C56 10.7669 45.2344 0 32 0ZM32 37.3334C24.6484 37.3334 18.6666 31.3516 18.6666 24C18.6666 16.6484 24.6485 10.6666 32 10.6666C39.3515 10.6666 45.3334 16.6485 45.3334 24C45.3334 31.3515 39.3516 37.3334 32 37.3334Z" fill="#F7C003"/>
</svg>
