<svg xmlns="http://www.w3.org/2000/svg" fill="none" viewBox="0 0 64 57"><defs/><g fill="#00D8FF" clip-path="url(#clip0)"><path d="M32 34.08a5.7 5.7 0 100-11.41 5.7 5.7 0 000 11.41z"/><path d="M32 41.45c-8.01 0-15.02-.95-20.26-2.74a25.74 25.74 0 01-8.34-4.47C1.22 32.38.06 30.34.06 28.37c0-3.77 4.13-7.46 11.08-9.87 5.68-1.98 13.1-3.09 20.85-3.09 7.61 0 14.92 1.07 20.57 3.03 3.31 1.14 6.1 2.61 8.07 4.25 2.15 1.8 3.29 3.76 3.29 5.68 0 3.93-4.63 7.9-12.08 10.36-5.28 1.75-12.33 2.72-19.84 2.72zm0-23.3c-7.36 0-14.63 1.06-19.95 2.91-6.39 2.23-9.25 5.28-9.25 7.31 0 2.12 3.08 5.45 9.83 7.76 4.96 1.69 11.66 2.59 19.37 2.59 7.23 0 13.97-.91 18.98-2.58C58 33.8 61.2 30.48 61.2 28.37c0-1.08-.82-2.35-2.3-3.59a23.4 23.4 0 00-7.21-3.77C46.3 19.17 39.32 18.14 32 18.14z"/><path d="M19.05 56.82a6 6 0 01-3.04-.75c-3.27-1.9-4.4-7.33-3.03-14.54 1.13-5.93 3.88-12.88 7.75-19.6 3.81-6.6 8.38-12.4 12.9-16.31 2.63-2.3 5.3-3.98 7.71-4.87 2.63-.97 4.9-.97 6.56-.01 3.4 1.95 4.53 7.96 2.94 15.64-1.13 5.46-3.81 12.04-7.56 18.55-4 6.94-8.32 12.53-12.5 16.18-2.7 2.36-5.49 4.1-8.03 4.99-1.33.48-2.58.72-3.7.72zm2.86-34.21l1.18.68c-3.67 6.37-6.4 13.2-7.44 18.75-1.26 6.65-.04 10.65 1.7 11.66.44.25 1 .39 1.7.39 2.26 0 5.82-1.43 9.94-5.03 3.94-3.44 8.07-8.8 11.92-15.48 3.62-6.26 6.19-12.56 7.26-17.73 1.48-7.24.2-11.68-1.63-12.74-.93-.53-2.44-.46-4.26.2-2.1.78-4.48 2.3-6.87 4.37-4.28 3.73-8.66 9.28-12.32 15.62l-1.18-.69z"/><path d="M44.95 56.85c-3.1 0-7.02-1.86-11.1-5.39-4.58-3.93-9.23-9.79-13.12-16.5-3.82-6.6-6.54-13.45-7.7-19.33-.66-3.43-.79-6.58-.36-9.12.48-2.76 1.6-4.73 3.28-5.7 3.39-1.96 9.15.07 15.02 5.28 4.16 3.7 8.52 9.31 12.28 15.82 4.02 6.93 6.71 13.47 7.78 18.9.7 3.52.8 6.8.32 9.46-.53 2.83-1.7 4.84-3.41 5.83-.86.5-1.87.75-3 .75zM23.1 33.59c3.68 6.37 8.25 12.13 12.53 15.8 5.12 4.41 9.2 5.37 10.95 4.34 1.83-1.05 3.18-5.38 1.79-12.39-1.02-5.13-3.6-11.39-7.47-18.06-3.63-6.26-7.8-11.64-11.74-15.14-5.53-4.91-10-6.01-11.84-4.96-.93.54-1.62 1.89-1.95 3.8-.38 2.2-.26 5.02.35 8.13 1.1 5.58 3.7 12.14 7.38 18.48z"/></g><defs><clipPath id="clip0"><path fill="#fff" d="M0 0h64v56.95H0z"/></clipPath></defs></svg>