<svg xmlns="http://www.w3.org/2000/svg" fill="none" viewBox="0 0 64 62"><defs/><g clip-path="url(#clip0)"><path fill="#764ABC" d="M44.35 42.44a4.57 4.57 0 00-.49-9.12h-.17a4.56 4.56 0 00-3.1 7.73c-2.76 5.46-7 9.45-13.35 12.79a22.02 22.02 0 01-13.27 2.52c-3.67-.49-6.52-2.11-8.31-4.8-2.6-4-2.85-8.31-.65-12.63 1.55-3.1 3.99-5.37 5.54-6.51a43.91 43.91 0 01-1.06-4.16c-11.81 8.56-10.59 20.12-7 25.58 2.68 4.07 8.14 6.6 14.16 6.6 1.63 0 3.26-.17 4.9-.57 10.42-2.04 18.32-8.23 22.8-17.43zm14.33-10.1C52.49 25.09 43.37 21.1 32.94 21.1h-1.3a4.48 4.48 0 00-4-2.45h-.15a4.56 4.56 0 00.16 9.13h.16a4.59 4.59 0 004-2.77h1.46c6.19 0 12.05 1.79 17.35 5.29 4.07 2.69 7 6.19 8.63 10.43 1.38 3.42 1.3 6.76-.16 9.6-2.28 4.32-6.11 6.68-11.16 6.68-3.26 0-6.35-.97-7.98-1.7-.9.8-2.53 2.11-3.67 2.93a25.14 25.14 0 0010.5 2.52c7.83 0 13.6-4.32 15.8-8.63 2.37-4.73 2.2-12.87-3.9-19.8zM17.3 43.82a4.57 4.57 0 004.56 4.4h.16a4.56 4.56 0 00-.16-9.12h-.17c-.16 0-.4 0-.57.08A29.84 29.84 0 0116.9 21.1a21.85 21.85 0 014.8-12.63C24.07 5.46 28.63 4 31.72 3.91c8.63-.16 12.3 10.59 12.54 14.9 1.06.25 2.85.82 4.08 1.23C47.36 6.84 39.2 0 31.4 0c-7.33 0-14.1 5.3-16.78 13.12-3.75 10.42-1.3 20.44 3.26 28.34-.41.57-.66 1.46-.57 2.36z"/></g><defs><clipPath id="clip0"><path fill="#fff" d="M0 0h64v61H0z"/></clipPath></defs></svg>