<svg xmlns="http://www.w3.org/2000/svg" fill="none" viewBox="0 0 64 64"><defs/><path fill="#C69" fill-rule="evenodd" d="M32 0a32 32 0 110 64 32 32 0 010-64z" clip-rule="evenodd"/><path fill="#fff" d="M52.07 13.7C50.62 8 41.2 6.15 32.28 9.3c-5.3 1.89-11.06 4.85-15.18 8.71-4.92 4.6-5.7 8.6-5.38 10.27 1.14 5.9 9.22 9.75 12.54 12.6v.03c-.98.48-8.14 4.1-9.82 7.81-1.77 3.92.28 6.72 1.64 7.1 4.2 1.17 8.53-.93 10.85-4.4 2.24-3.34 2.05-7.65 1.08-9.8a12.9 12.9 0 014.9-.28c5.6.66 6.7 4.16 6.5 5.63a3.7 3.7 0 01-1.78 2.52c-.4.24-.52.33-.48.5.04.27.23.26.56.2.47-.08 2.95-1.2 3.05-3.9.14-3.43-3.15-7.28-8.99-7.17-2.4.04-3.91.27-5 .67l-.25-.27c-3.6-3.85-10.27-6.57-9.99-11.74.1-1.88.76-6.84 12.81-12.84 9.87-4.92 17.78-3.57 19.15-.57 1.95 4.29-4.23 12.26-14.49 13.4-3.9.44-5.96-1.08-6.48-1.64-.53-.6-.62-.63-.82-.51-.32.18-.11.7 0 1.02.32.8 1.56 2.2 3.7 2.91 1.9.62 6.48.96 12.03-1.19 6.22-2.4 11.07-9.09 9.64-14.67zM25.64 42.66a8.17 8.17 0 01-.45 5.73 8.9 8.9 0 01-1.48 2.15c-1.86 2.03-4.45 2.8-5.57 2.15-1.2-.7-.6-3.55 1.56-5.83a21.5 21.5 0 015.65-4.02v-.01l.3-.17z"/></svg>