<svg xmlns="http://www.w3.org/2000/svg" fill="none" viewBox="0 0 64 64"><defs/><path fill="#333" d="M31.85 0a32 32 0 10.3 64 32 32 0 00-.3-64zm13.23 19.26c.27 0 .86.07 1.24.38.26.22.42.53.46.86.04.25.1.82.05 1.26-.48 5.06-2.56 17.34-3.62 23-.45 2.4-1.34 3.21-2.2 3.29-1.85.17-3.26-1.23-5.06-2.4-2.81-1.86-4.4-3-7.14-4.8-3.16-2.09-1.11-3.23.69-5.1.47-.5 8.66-7.94 8.82-8.61.02-.09.03-.4-.15-.57-.19-.16-.47-.1-.67-.06-.28.06-4.78 3.04-13.5 8.92-1.27.88-2.43 1.3-3.46 1.28-1.15-.02-3.34-.65-4.98-1.18-2-.65-3.6-1-3.46-2.1.08-.58.87-1.17 2.39-1.77 9.32-4.06 15.54-6.74 18.66-8.04 8.88-3.7 10.73-4.33 11.93-4.36z"/></svg>