<svg height="512pt" viewBox="0 0 512 512" width="512pt" xmlns="http://www.w3.org/2000/svg"><path d="m409.570312 392.519531c0 61.8125-68.753906 111.917969-153.570312 111.917969s-153.570312-50.109375-153.570312-111.917969zm0 0" fill="#84a3e3"/><path d="m142.429688 392.519531h-40c0 61.8125 68.753906 111.917969 153.570312 111.917969 6.777344 0 13.453125-.324219 20-.945312-75.363281-7.140626-133.570312-54.101563-133.570312-110.972657zm0 0" fill="#5c84d9"/><path d="m256 7.5c-80.339844 0-145.46875 65.128906-145.46875 145.46875v170.878906h290.9375v-170.878906c0-80.339844-65.128906-145.46875-145.46875-145.46875zm0 0" fill="#84a3e3"/><path d="m271 8.265625c-4.929688-.503906-9.933594-.765625-15-.765625-80.339844 0-145.46875 65.128906-145.46875 145.46875v170.878906h30v-170.878906c0-75.277344 57.175781-137.195312 130.46875-144.703125zm0 0" fill="#5c84d9"/><path d="m174.335938 293.847656c-23.335938-53.921875-53.105469-212.078125 81.664062-212.078125s105 158.15625 81.667969 212.078125l-81.667969 17.257813zm0 0" fill="#00dcc3"/><path d="m204.335938 293.847656c-22.425782-51.820312-50.796876-199.921875 66.664062-211.371094-4.757812-.464843-9.753906-.707031-15-.707031-134.769531 0-105 158.15625-81.667969 212.078125l81.667969 17.257813 15-3.171875zm0 0" fill="#00c4a2"/><path d="m210.15625 237.1875h-10.894531c-4.144531 0-7.5-3.359375-7.5-7.5s3.355469-7.5 7.5-7.5h10.894531c4.144531 0 7.5 3.359375 7.5 7.5s-3.355469 7.5-7.5 7.5zm0 0" fill="#ff889e"/><path d="m312.742188 237.1875h-10.898438c-4.140625 0-7.5-3.359375-7.5-7.5s3.359375-7.5 7.5-7.5h10.898438c4.140624 0 7.5 3.359375 7.5 7.5s-3.359376 7.5-7.5 7.5zm0 0" fill="#ff889e"/><path d="m401.46875 293.847656h-290.9375s-103.03125 38.097656-103.03125 118.617188c0 13.867187 11.242188 25.109375 25.109375 25.109375h446.78125c13.867187 0 25.109375-11.238281 25.109375-25.109375 0-80.519532-103.03125-118.617188-103.03125-118.617188zm0 0" fill="#d5d4da"/><g fill="#a5b0bc"><path d="m37.5 412.464844c0-80.519532 103.03125-118.617188 103.03125-118.617188h-30s-103.03125 38.097656-103.03125 118.617188c0 13.867187 11.242188 25.109375 25.109375 25.109375h30c-13.867187 0-25.109375-11.242188-25.109375-25.109375zm0 0"/><path d="m282.808594 365.710938c0 14.808593-12.003906 26.808593-26.808594 26.808593s-26.808594-12-26.808594-26.808593c0-14.804688 12.003906-26.808594 26.808594-26.808594s26.808594 12.003906 26.808594 26.808594zm0 0"/><path d="m156.511719 365.710938c0 14.808593-12.003907 26.808593-26.808594 26.808593s-26.808594-12-26.808594-26.808593c0-14.804688 12.003907-26.808594 26.808594-26.808594s26.808594 12.003906 26.808594 26.808594zm0 0"/><path d="m409.105469 365.710938c0 14.808593-12.003907 26.808593-26.808594 26.808593s-26.808594-12-26.808594-26.808593c0-14.804688 12.003907-26.808594 26.808594-26.808594s26.808594 12.003906 26.808594 26.808594zm0 0"/></g><path d="m256 400.019531c18.917969 0 34.308594-15.390625 34.308594-34.308593 0-18.914063-15.390625-34.308594-34.308594-34.308594s-34.308594 15.390625-34.308594 34.308594c0 18.917968 15.390625 34.308593 34.308594 34.308593zm0-53.617187c10.644531 0 19.308594 8.664062 19.308594 19.308594 0 10.648437-8.664063 19.308593-19.308594 19.308593s-19.308594-8.660156-19.308594-19.308593c0-10.644532 8.664063-19.308594 19.308594-19.308594zm0 0"/><path d="m129.703125 400.019531c18.917969 0 34.308594-15.390625 34.308594-34.308593 0-18.914063-15.390625-34.308594-34.308594-34.308594s-34.308594 15.390625-34.308594 34.308594c0 18.917968 15.390625 34.308593 34.308594 34.308593zm0-53.617187c10.648437 0 19.308594 8.664062 19.308594 19.308594 0 10.648437-8.660157 19.308593-19.308594 19.308593-10.644531 0-19.308594-8.660156-19.308594-19.308593 0-10.644532 8.664063-19.308594 19.308594-19.308594zm0 0"/><path d="m382.296875 400.019531c18.917969 0 34.308594-15.390625 34.308594-34.308593 0-18.914063-15.390625-34.308594-34.308594-34.308594s-34.308594 15.390625-34.308594 34.308594c0 18.917968 15.390625 34.308593 34.308594 34.308593zm0-53.617187c10.644531 0 19.308594 8.664062 19.308594 19.308594 0 10.648437-8.664063 19.308593-19.308594 19.308593-10.648437 0-19.308594-8.660156-19.308594-19.308593 0-10.644532 8.660157-19.308594 19.308594-19.308594zm0 0"/><path d="m273.023438 215.429688c-3.117188-2.726563-7.855469-2.40625-10.582032.710937-1.546875 1.769531-3.894531 2.785156-6.441406 2.785156s-4.894531-1.015625-6.441406-2.785156c-2.726563-3.117187-7.464844-3.4375-10.582032-.710937-3.121093 2.726562-3.4375 7.464843-.710937 10.585937 4.394531 5.027344 10.859375 7.910156 17.734375 7.910156s13.339844-2.882812 17.734375-7.910156c2.726563-3.121094 2.410156-7.859375-.710937-10.585937zm0 0"/><path d="m305.84375 215.628906c4.140625 0 7.5-3.359375 7.5-7.5v-9.691406c0-4.140625-3.359375-7.5-7.5-7.5-4.144531 0-7.5 3.359375-7.5 7.5v9.691406c0 4.140625 3.355469 7.5 7.5 7.5zm0 0"/><path d="m206.15625 215.628906c4.144531 0 7.5-3.359375 7.5-7.5v-9.691406c0-4.140625-3.355469-7.5-7.5-7.5-4.140625 0-7.5 3.359375-7.5 7.5v9.691406c0 4.140625 3.359375 7.5 7.5 7.5zm0 0"/><path d="m32.609375 445.074219h78.660156c26.878907 40.746093 83.09375 66.863281 144.730469 66.863281 20.429688 0 40.359375-2.800781 59.246094-8.324219 3.976562-1.160156 6.257812-5.328125 5.09375-9.300781-1.160156-3.976562-5.328125-6.257812-9.304688-5.09375-17.515625 5.125-36.03125 7.71875-55.035156 7.71875-52.324219 0-100.113281-19.992188-126.144531-51.863281h252.28125c-11.046875 13.507812-26.214844 25.109375-44.542969 33.984375-3.726562 1.804687-5.285156 6.289062-3.480469 10.019531 1.804688 3.726563 6.289063 5.285156 10.019531 3.480469 24.394532-11.816406 43.875-28.175782 56.601563-47.484375h78.65625c17.980469 0 32.609375-14.628907 32.609375-32.605469 0-35.359375-18.835938-68.371094-54.476562-95.476562-19.917969-15.148438-39.644532-24.40625-48.554688-28.195313v-135.828125c0-84.347656-68.621094-152.96875-152.96875-152.96875-34.425781 0-66.9375 11.171875-94.027344 32.308594-3.265625 2.546875-3.84375 7.261718-1.296875 10.527344 2.546875 3.265624 7.261719 3.847656 10.527344 1.296874 24.425781-19.058593 53.746094-29.132812 84.796875-29.132812 76.074219 0 137.96875 61.890625 137.96875 137.96875v133.378906h-45.257812c16.488281-45.074218 28.304687-122.585937-2.84375-170.003906-18.339844-27.917969-48.574219-42.074219-89.867188-42.074219s-71.527344 14.15625-89.867188 42.074219c-31.148437 47.417969-19.332031 124.929688-2.84375 170.003906h-45.257812v-133.378906c0-32.605469 11.59375-64.25 32.644531-89.109375 2.675781-3.160156 2.285157-7.890625-.875-10.570313-3.160156-2.675781-7.894531-2.28125-10.570312.878907-23.34375 27.5625-36.199219 62.648437-36.199219 98.800781v135.824219c-8.910156 3.792969-28.632812 13.050781-48.554688 28.199219-35.640624 27.101562-54.476562 60.117187-54.476562 95.472656 0 17.980468 14.628906 32.609375 32.609375 32.609375zm146.0625-320.496094c15.386719-23.429687 41.40625-35.308594 77.328125-35.308594s61.941406 11.878907 77.328125 35.308594c30.28125 46.09375 13.515625 125.710937-.679687 161.773437h-153.296876c-14.195312-36.0625-30.957031-115.679687-.679687-161.773437zm-115.410156 204.578125c21.527343-16.4375 43.410156-25.699219 48.679687-27.808594h288.117188c11.1875 4.488282 96.941406 41.183594 96.941406 111.117188 0 9.710937-7.898438 17.609375-17.609375 17.609375h-446.78125c-9.710937 0-17.609375-7.898438-17.609375-17.609375 0-30.824219 16.238281-58.855469 48.261719-83.308594zm0 0"/></svg>