<svg width="64" height="64" viewBox="0 0 64 64" fill="none" xmlns="http://www.w3.org/2000/svg">
<path d="M62.6613 16.4958C62.2997 15.1339 61.5867 13.8908 60.5936 12.8912C59.6005 11.8915 58.3621 11.1703 57.0027 10.7998C52.0133 9.45313 32 9.45312 32 9.45312C32 9.45312 11.9867 9.45313 6.99467 10.7998C5.63576 11.171 4.39811 11.8924 3.40555 12.892C2.41296 13.8916 1.70024 15.1343 1.33867 16.4958C0 21.5198 0 31.9997 0 31.9997C0 31.9997 0 42.4797 1.33867 47.5037C1.70023 48.8656 2.41327 50.1088 3.40637 51.1085C4.39949 52.108 5.63781 52.8293 6.99733 53.1997C11.9867 54.5464 32 54.5464 32 54.5464C32 54.5464 52.0133 54.5464 57.0053 53.1997C58.3651 52.8296 59.6035 52.1085 60.5965 51.1088C61.5896 50.1091 62.3027 48.8659 62.664 47.5037C64 42.4797 64 31.9997 64 31.9997C64 31.9997 64 21.5198 62.6613 16.4958ZM25.4533 41.5144V22.4851L42.1813 31.9997L25.4533 41.5144Z" fill="#333333"/>
</svg>
