<svg width="40" height="39" viewBox="0 0 40 39" fill="none" xmlns="http://www.w3.org/2000/svg">
<path d="M10.3047 28.875V10.3125C10.3047 10.3125 14.1406 10.3125 21.8125 10.3125C23.6719 10.3125 25.2656 11.2266 26.5938 13.0547C27.9375 14.8672 28.6094 17.0469 28.6094 19.5938C28.6094 22.1562 27.9375 24.3438 26.5938 26.1562C25.2656 27.9688 23.6719 28.875 21.8125 28.875H10.3047ZM11.9922 27.1875H21.8125C23.2031 27.1875 24.3906 26.4453 25.375 24.9609C26.375 23.4766 26.875 21.6875 26.875 19.5938C26.875 17.4844 26.375 15.6953 25.375 14.2266C24.3906 12.7422 23.2031 12 21.8125 12H11.9922V27.1875ZM8.61719 30.5625H21.8125C24.1406 30.5625 26.1406 29.4922 27.8125 27.3516C29.5 25.1953 30.3438 22.6094 30.3438 19.5938C30.3438 17.6094 29.9531 15.7734 29.1719 14.0859C28.4062 12.3984 27.3672 11.0703 26.0547 10.1016C24.7578 9.11719 23.3438 8.625 21.8125 8.625H8.61719V30.5625ZM6.92969 32.25V6.9375H21.8125C23.6406 6.9375 25.3438 7.5 26.9219 8.625C28.5 9.75 29.75 11.2891 30.6719 13.2422C31.6094 15.1797 32.0781 17.2969 32.0781 19.5938C32.0781 21.875 31.6094 23.9922 30.6719 25.9453C29.75 27.8984 28.5 29.4375 26.9219 30.5625C25.3438 31.6875 23.6406 32.25 21.8125 32.25H6.92969ZM5.24219 33.9375H21.8125C23.9531 33.9375 25.9375 33.2969 27.7656 32.0156C29.6094 30.7344 31.0781 28.9922 32.1719 26.7891C33.2656 24.5859 33.8125 22.1875 33.8125 19.5938C33.8125 17.0156 33.2656 14.625 32.1719 12.4219C31.0781 10.2031 29.6094 8.45312 27.7656 7.17188C25.9219 5.89062 23.9375 5.25 21.8125 5.25H5.24219V33.9375ZM3.55469 35.625V3.5625H21.8125C24.25 3.5625 26.5234 4.28125 28.6328 5.71875C30.7422 7.14062 32.4219 9.08594 33.6719 11.5547C34.9219 14.0234 35.5469 16.7031 35.5469 19.5938C35.5469 22.4844 34.9219 25.1641 33.6719 27.6328C32.4219 30.1016 30.7422 32.0547 28.6328 33.4922C26.5234 34.9141 24.25 35.625 21.8125 35.625H3.55469ZM1.86719 37.3125H21.8125C23.8594 37.3125 25.8359 36.8438 27.7422 35.9062C29.6484 34.9688 31.2969 33.7109 32.6875 32.1328C34.0781 30.5547 35.1875 28.6719 36.0156 26.4844C36.8594 24.2812 37.2812 21.9844 37.2812 19.5938C37.2812 17.2031 36.8594 14.9141 36.0156 12.7266C35.1875 10.5391 34.0781 8.65625 32.6875 7.07812C31.2969 5.48438 29.6484 4.21875 27.7422 3.28125C25.8359 2.34375 23.8594 1.875 21.8125 1.875H1.86719V37.3125ZM21.8125 39H0.179688V0.1875H21.8125C24.8594 0.1875 27.7031 1.05469 30.3438 2.78906C32.9844 4.52344 35.0859 6.88281 36.6484 9.86719C38.2266 12.8516 39.0156 16.0938 39.0156 19.5938C39.0156 22.2188 38.5469 24.7344 37.6094 27.1406C36.6875 29.5312 35.4531 31.5938 33.9062 33.3281C32.3594 35.0625 30.5234 36.4453 28.3984 37.4766C26.2891 38.4922 24.0938 39 21.8125 39Z" fill="#333333"/>
</svg>
