<svg width="24" height="24" viewBox="0 0 24 24" fill="none" xmlns="http://www.w3.org/2000/svg">
<g clip-path="url(#clip0)">
<path fill-rule="evenodd" clip-rule="evenodd" d="M11.9995 2.07056e-06C9.14788 -0.00297017 6.3884 1.03557 4.21561 2.92951C2.04281 4.82345 0.598729 7.44899 0.142145 10.3356C-0.314438 13.2222 0.246323 16.1813 1.72394 18.6824C3.20155 21.1836 5.49943 23.0633 8.20579 23.9849C8.80984 24.0982 9.02347 23.7129 9.02347 23.3881C9.02347 23.0633 9.02347 22.3229 9.02347 21.2956C5.67172 22.0434 4.96454 19.6412 4.96454 19.6412C4.74218 18.8966 4.26979 18.257 3.6312 17.8357C2.54833 17.0803 3.7196 17.0803 3.7196 17.0803C4.09919 17.1352 4.46161 17.2781 4.7794 17.498C5.09719 17.7179 5.36203 18.009 5.55386 18.3494C5.71685 18.6525 5.93659 18.9196 6.20049 19.1353C6.46438 19.3511 6.76722 19.5113 7.09164 19.6068C7.41606 19.7022 7.75566 19.731 8.09097 19.6916C8.42627 19.6521 8.75068 19.5451 9.04557 19.3768C9.0918 18.7553 9.35306 18.1713 9.78222 17.7299C7.11555 17.4202 4.31629 16.3626 4.31629 11.6865C4.29798 10.465 4.73844 9.28297 5.54649 8.38527C5.1866 7.32316 5.22867 6.16119 5.66435 5.12937C5.66435 5.12937 6.67356 4.79698 8.96454 6.39094C10.9318 5.83703 13.0083 5.83703 14.9756 6.39094C17.2666 4.79698 18.2684 5.12937 18.2684 5.12937C18.7102 6.15028 18.7627 7.3039 18.4157 8.36261C19.2238 9.26031 19.6642 10.4423 19.6459 11.6638C19.6459 16.3928 16.8393 17.4278 14.1653 17.7073C14.452 18.0029 14.6734 18.3582 14.8145 18.7492C14.9556 19.1402 15.013 19.5578 14.983 19.9736C14.983 21.6204 14.983 22.95 14.983 23.3503C14.983 23.7507 15.1966 24.0604 15.808 23.9396C18.4835 22.9937 20.747 21.1086 22.1985 18.6172C23.65 16.1257 24.1962 13.1884 23.7405 10.3241C23.2849 7.45972 21.8567 4.85271 19.7082 2.96357C17.5598 1.07444 14.8295 0.024772 11.9995 2.07056e-06Z" fill="#333333"/>
</g>
<defs>
<clipPath id="clip0">
<rect width="24" height="24" fill="white"/>
</clipPath>
</defs>
</svg>
