<svg width="24" height="24" viewBox="0 0 24 24" fill="none" xmlns="http://www.w3.org/2000/svg">
<g clip-path="url(#clip0)">
<path d="M1.50069 1.633C-0.385312 3.592 0.00068754 5.673 0.00068754 11.995C0.00068754 17.245 -0.915313 22.508 3.87869 23.747C5.37569 24.132 18.6397 24.132 20.1347 23.745C22.1307 23.23 23.7547 21.611 23.9767 18.788C24.0077 18.394 24.0077 5.603 23.9757 5.201C23.7397 2.194 21.8887 0.461001 19.4497 0.110001C18.8907 0.0290007 18.7787 0.00500064 15.9107 6.4075e-07C5.73769 0.00500064 3.50769 -0.448 1.50069 1.633Z" fill="#333333"/>
<path d="M11.9988 3.13898C8.36779 3.13898 4.91979 2.81598 3.60279 6.19598C3.05879 7.59198 3.13779 9.40499 3.13779 12.001C3.13779 14.279 3.06479 16.42 3.60279 17.805C4.91679 21.187 8.39279 20.863 11.9968 20.863C15.4738 20.863 19.0588 21.225 20.3918 17.805C20.9368 16.395 20.8568 14.609 20.8568 12.001C20.8568 8.53899 21.0478 6.30398 19.3688 4.62598C17.6688 2.92598 15.3698 3.13898 11.9948 3.13898H11.9988ZM11.2048 4.73598C18.7788 4.72398 19.7428 3.88199 19.2108 15.579C19.0218 19.716 15.8718 19.262 11.9998 19.262C4.93979 19.262 4.73679 19.06 4.73679 11.997C4.73679 4.85198 5.29679 4.73998 11.2048 4.73398V4.73598ZM16.7288 6.20698C16.1418 6.20698 15.6658 6.68298 15.6658 7.26998C15.6658 7.85698 16.1418 8.33298 16.7288 8.33298C17.3158 8.33298 17.7918 7.85698 17.7918 7.26998C17.7918 6.68298 17.3158 6.20698 16.7288 6.20698ZM11.9988 7.44998C9.48579 7.44998 7.44879 9.48799 7.44879 12.001C7.44879 14.514 9.48579 16.551 11.9988 16.551C14.5118 16.551 16.5478 14.514 16.5478 12.001C16.5478 9.48799 14.5118 7.44998 11.9988 7.44998ZM11.9988 9.04698C15.9038 9.04698 15.9088 14.955 11.9988 14.955C8.09479 14.955 8.08879 9.04698 11.9988 9.04698Z" fill="#F7C003"/>
</g>
<defs>
<clipPath id="clip0">
<rect width="24" height="24" fill="white"/>
</clipPath>
</defs>
</svg>
