<svg width="24" height="24" viewBox="0 0 24 24" fill="none" xmlns="http://www.w3.org/2000/svg">
<g clip-path="url(#clip0)">
<path d="M12.0062 24.0124C18.637 24.0124 24.0124 18.637 24.0124 12.0062C24.0124 5.37536 18.637 0 12.0062 0C5.37536 0 0 5.37536 0 12.0062C0 18.637 5.37536 24.0124 12.0062 24.0124Z" fill="#333333"/>
<path d="M16.5859 7.1135C16.5859 7.1135 17.8351 6.6277 17.731 7.8075C17.6963 8.2933 17.384 9.9936 17.1411 11.8327L16.3083 17.2806C16.3083 17.2806 16.2389 18.0787 15.6143 18.2175C14.9897 18.3563 14.0528 17.7317 13.8793 17.5929C13.7405 17.4888 11.2768 15.9273 10.4093 15.1639C10.1664 14.9557 9.88884 14.5393 10.444 14.0535L14.0875 10.5835C14.5039 10.1671 14.9203 9.1955 13.1853 10.3753L8.32734 13.6718C8.32734 13.6718 7.77214 14.0188 6.73114 13.7065L4.47564 13.0125C4.47564 13.0125 3.64284 12.492 5.06554 11.9715C8.53554 10.3406 12.8036 8.675 16.5859 7.1135Z" fill="#F7C003"/>
</g>
<defs>
<clipPath id="clip0">
<rect width="24" height="24" fill="white"/>
</clipPath>
</defs>
</svg>
